<svg width="37" height="30" viewBox="0 0 37 30" fill="none" xmlns="http://www.w3.org/2000/svg">
<path d="M18.5 24.375C19.0242 24.375 19.4635 24.1953 19.8181 23.8359C20.1727 23.4766 20.35 23.0312 20.35 22.5C20.35 21.9688 20.1727 21.5234 19.8181 21.1641C19.4635 20.8047 19.0242 20.625 18.5 20.625C17.9758 20.625 17.5365 20.8047 17.1819 21.1641C16.8273 21.5234 16.65 21.9688 16.65 22.5C16.65 23.0312 16.8273 23.4766 17.1819 23.8359C17.5365 24.1953 17.9758 24.375 18.5 24.375ZM18.5 16.875C19.0242 16.875 19.4635 16.6953 19.8181 16.3359C20.1727 15.9766 20.35 15.5312 20.35 15C20.35 14.4688 20.1727 14.0234 19.8181 13.6641C19.4635 13.3047 19.0242 13.125 18.5 13.125C17.9758 13.125 17.5365 13.3047 17.1819 13.6641C16.8273 14.0234 16.65 14.4688 16.65 15C16.65 15.5312 16.8273 15.9766 17.1819 16.3359C17.5365 16.6953 17.9758 16.875 18.5 16.875ZM18.5 9.375C19.0242 9.375 19.4635 9.19531 19.8181 8.83594C20.1727 8.47656 20.35 8.03125 20.35 7.5C20.35 6.96875 20.1727 6.52344 19.8181 6.16406C19.4635 5.80469 19.0242 5.625 18.5 5.625C17.9758 5.625 17.5365 5.80469 17.1819 6.16406C16.8273 6.52344 16.65 6.96875 16.65 7.5C16.65 8.03125 16.8273 8.47656 17.1819 8.83594C17.5365 9.19531 17.9758 9.375 18.5 9.375ZM33.3 30H3.7C2.6825 30 1.81146 29.6328 1.08688 28.8984C0.362292 28.1641 0 27.2812 0 26.25V18.75C1.0175 18.75 1.88854 18.3828 2.61313 17.6484C3.33771 16.9141 3.7 16.0312 3.7 15C3.7 13.9688 3.33771 13.0859 2.61313 12.3516C1.88854 11.6172 1.0175 11.25 0 11.25V3.75C0 2.71875 0.362292 1.83594 1.08688 1.10156C1.81146 0.367188 2.6825 0 3.7 0H33.3C34.3175 0 35.1885 0.367188 35.9131 1.10156C36.6377 1.83594 37 2.71875 37 3.75V11.25C35.9825 11.25 35.1115 11.6172 34.3869 12.3516C33.6623 13.0859 33.3 13.9688 33.3 15C33.3 16.0312 33.6623 16.9141 34.3869 17.6484C35.1115 18.3828 35.9825 18.75 37 18.75V26.25C37 27.2812 36.6377 28.1641 35.9131 28.8984C35.1885 29.6328 34.3175 30 33.3 30ZM33.3 26.25V21.4688C32.1592 20.7812 31.2573 19.8672 30.5944 18.7266C29.9315 17.5859 29.6 16.3438 29.6 15C29.6 13.6562 29.9315 12.4141 30.5944 11.2734C31.2573 10.1328 32.1592 9.21875 33.3 8.53125V3.75H3.7V8.53125C4.84083 9.21875 5.74271 10.1328 6.40563 11.2734C7.06854 12.4141 7.4 13.6562 7.4 15C7.4 16.3438 7.06854 17.5859 6.40563 18.7266C5.74271 19.8672 4.84083 20.7812 3.7 21.4688V26.25H33.3Z" fill="black"/>
</svg>
