<svg width="29" height="26" viewBox="0 0 29 26" fill="none" xmlns="http://www.w3.org/2000/svg">
<mask id="mask0_22_34" style="mask-type:alpha" maskUnits="userSpaceOnUse" x="-5" y="-5" width="35" height="36">
<rect x="-4.75958" y="-4.33334" width="34.6667" height="34.6667" fill="#D9D9D9"/>
</mask>
<g mask="url(#mask0_22_34)">
<path d="M14.2787 26V23.1111H25.3843V2.88889H14.2787V0H25.3843C26.2569 0 27.0039 0.28287 27.6253 0.848611C28.2467 1.41435 28.5574 2.09444 28.5574 2.88889V23.1111C28.5574 23.9056 28.2467 24.5856 27.6253 25.1514C27.0039 25.7171 26.2569 26 25.3843 26H14.2787ZM11.1056 20.2222L8.92418 18.1278L12.9698 14.4444H0V11.5556H12.9698L8.92418 7.87222L11.1056 5.77778L19.0383 13L11.1056 20.2222Z" fill="#1C1B1F"/>
</g>
</svg>
